<svg width="60" height="61" viewBox="0 0 60 61" fill="none" xmlns="http://www.w3.org/2000/svg">
  <rect y="0.97998" width="60" height="60" rx="30" fill="#EDF9EC" />
  <path
    d="M34.59 27.6466C36.2008 27.6466 37.5067 28.9525 37.5067 30.5633V38.4783C37.5067 42.6213 34.148 45.98 30.005 45.98C25.8619 45.98 22.5032 42.6213 22.5032 38.4783V30.5633C22.5032 28.9525 23.8091 27.6466 25.4199 27.6466H34.59ZM34.59 30.1466H25.4199C25.1898 30.1466 25.0032 30.3331 25.0032 30.5633V38.4783C25.0032 41.2406 27.2425 43.48 30.005 43.48C32.7673 43.48 35.0067 41.2406 35.0067 38.4783V30.5633C35.0067 30.3331 34.8202 30.1466 34.59 30.1466ZM16.25 27.6466L21.8855 27.6451C21.3132 28.3375 20.9404 29.2008 20.8552 30.147L16.25 30.1466C16.0199 30.1466 15.8333 30.3331 15.8333 30.5633V35.978C15.8333 38.2803 17.6997 40.1466 20.0021 40.1466C20.3354 40.1466 20.6596 40.1075 20.9703 40.0336C21.1115 40.8735 21.3693 41.6745 21.7248 42.42C21.1763 42.5683 20.5983 42.6466 20.0021 42.6466C16.319 42.6466 13.3333 39.661 13.3333 35.978V30.5633C13.3333 28.9525 14.6392 27.6466 16.25 27.6466ZM38.1245 27.6451L43.75 27.6466C45.3608 27.6466 46.6667 28.9525 46.6667 30.5633V35.98C46.6667 39.6618 43.6818 42.6466 40 42.6466C39.406 42.6466 38.83 42.569 38.2818 42.4231C38.64 41.6761 38.898 40.8751 39.0417 40.0351C39.3487 40.1083 39.6698 40.1466 40 40.1466C42.3012 40.1466 44.1667 38.2811 44.1667 35.98V30.5633C44.1667 30.3331 43.9802 30.1466 43.75 30.1466L39.1547 30.147C39.0695 29.2008 38.6967 28.3375 38.1245 27.6451ZM30 15.98C32.7615 15.98 35 18.2186 35 20.98C35 23.7414 32.7615 25.98 30 25.98C27.2385 25.98 25 23.7414 25 20.98C25 18.2186 27.2385 15.98 30 15.98ZM40.8333 17.6466C43.1345 17.6466 45 19.5121 45 21.8133C45 24.1145 43.1345 25.98 40.8333 25.98C38.5322 25.98 36.6667 24.1145 36.6667 21.8133C36.6667 19.5121 38.5322 17.6466 40.8333 17.6466ZM19.1667 17.6466C21.4679 17.6466 23.3333 19.5121 23.3333 21.8133C23.3333 24.1145 21.4679 25.98 19.1667 25.98C16.8655 25.98 15 24.1145 15 21.8133C15 19.5121 16.8655 17.6466 19.1667 17.6466ZM30 18.48C28.6193 18.48 27.5 19.5993 27.5 20.98C27.5 22.3607 28.6193 23.48 30 23.48C31.3807 23.48 32.5 22.3607 32.5 20.98C32.5 19.5993 31.3807 18.48 30 18.48ZM40.8333 20.1466C39.9128 20.1466 39.1667 20.8928 39.1667 21.8133C39.1667 22.7338 39.9128 23.48 40.8333 23.48C41.7538 23.48 42.5 22.7338 42.5 21.8133C42.5 20.8928 41.7538 20.1466 40.8333 20.1466ZM19.1667 20.1466C18.2462 20.1466 17.5 20.8928 17.5 21.8133C17.5 22.7338 18.2462 23.48 19.1667 23.48C20.0871 23.48 20.8333 22.7338 20.8333 21.8133C20.8333 20.8928 20.0871 20.1466 19.1667 20.1466Z"
    fill="#55855A" />
</svg>